<svg xmlns="http://www.w3.org/2000/svg" xmlns:xlink="http://www.w3.org/1999/xlink" width="500" zoomAndPan="magnify" viewBox="0 0 375 374.999991" height="500" preserveAspectRatio="xMidYMid meet" version="1.0"><defs><clipPath id="ff7d453554"><path d="M 18.277344 38 L 364.027344 38 L 364.027344 323 L 18.277344 323 Z M 18.277344 38 " clip-rule="nonzero"/></clipPath></defs><g clip-path="url(#ff7d453554)"><path fill="#48cfae" d="M 119.664062 319.011719 L 174.117188 264.558594 C 176.902344 261.769531 181.4375 261.773438 184.222656 264.558594 L 232.203125 312.539062 C 237.371094 317.710938 245.789062 317.710938 250.957031 312.539062 L 267.636719 295.859375 C 270.140625 293.355469 271.519531 290.023438 271.519531 286.480469 C 271.519531 282.9375 270.140625 279.613281 267.636719 277.105469 L 188.546875 198.015625 C 183.378906 192.847656 174.964844 192.847656 169.792969 198.015625 L 84.230469 283.582031 C 79.058594 288.753906 79.058594 297.164062 84.230469 302.335938 L 100.90625 319.011719 C 103.492188 321.601562 106.886719 322.890625 110.285156 322.890625 C 113.679688 322.890625 117.078125 321.601562 119.664062 319.011719 Z M 343.792969 281.925781 L 360.472656 265.246094 C 362.976562 262.742188 364.355469 259.410156 364.355469 255.871094 C 364.355469 252.328125 362.976562 248.996094 360.472656 246.492188 L 250.273438 136.292969 C 245.101562 131.121094 236.691406 131.121094 231.515625 136.292969 L 214.839844 152.972656 C 209.671875 158.140625 209.671875 166.554688 214.839844 171.722656 L 325.042969 281.925781 C 327.625 284.511719 331.019531 285.804688 334.417969 285.804688 C 337.8125 285.804688 341.210938 284.511719 343.792969 281.925781 Z M 48.21875 260.832031 C 44.679688 260.832031 41.347656 259.457031 38.84375 256.949219 L 22.164062 240.273438 C 19.660156 237.765625 18.28125 234.4375 18.28125 230.894531 C 18.28125 227.351562 19.660156 224.023438 22.164062 221.519531 L 200.996094 42.6875 C 206.164062 37.515625 214.582031 37.515625 219.753906 42.6875 L 236.429688 59.367188 C 241.601562 64.535156 241.601562 72.949219 236.429688 78.117188 L 57.597656 256.949219 C 55.09375 259.457031 51.761719 260.832031 48.21875 260.832031 " fill-opacity="1" fill-rule="nonzero"/></g></svg>