<svg xmlns="http://www.w3.org/2000/svg" xmlns:xlink="http://www.w3.org/1999/xlink" width="500" zoomAndPan="magnify" viewBox="0 0 375 374.999991" height="500" preserveAspectRatio="xMidYMid meet" version="1.0"><defs><clipPath id="fa472fb211"><path d="M 2.402344 36 L 372.902344 36 L 372.902344 340.097656 L 2.402344 340.097656 Z M 2.402344 36 " clip-rule="nonzero"/></clipPath></defs><g clip-path="url(#fa472fb211)"><path fill="#48cfae" d="M 110.851562 335.976562 L 169.097656 277.726562 C 172.078125 274.746094 176.929688 274.75 179.910156 277.726562 L 231.234375 329.054688 C 236.761719 334.582031 245.765625 334.582031 251.292969 329.054688 L 269.136719 311.210938 C 271.816406 308.535156 273.289062 304.96875 273.289062 301.179688 C 273.289062 297.390625 271.816406 293.832031 269.136719 291.148438 L 184.535156 206.550781 C 179.003906 201.019531 170.003906 201.019531 164.472656 206.550781 L 72.949219 298.078125 C 67.417969 303.609375 67.417969 312.605469 72.949219 318.140625 L 90.785156 335.976562 C 93.550781 338.746094 97.183594 340.128906 100.816406 340.128906 C 104.453125 340.128906 108.085938 338.746094 110.851562 335.976562 Z M 350.601562 296.308594 L 368.441406 278.464844 C 371.121094 275.785156 372.597656 272.222656 372.597656 268.4375 C 372.597656 264.648438 371.121094 261.082031 368.441406 258.402344 L 250.5625 140.523438 C 245.03125 134.992188 236.035156 134.992188 230.5 140.523438 L 212.660156 158.367188 C 207.128906 163.894531 207.128906 172.894531 212.660156 178.425781 L 330.542969 296.308594 C 333.304688 299.070312 336.9375 300.453125 340.570312 300.453125 C 344.203125 300.453125 347.835938 299.070312 350.601562 296.308594 Z M 34.429688 273.746094 C 30.640625 273.746094 27.078125 272.269531 24.398438 269.589844 L 6.558594 251.75 C 3.878906 249.070312 2.40625 245.507812 2.40625 241.71875 C 2.40625 237.929688 3.878906 234.371094 6.558594 231.691406 L 197.851562 40.394531 C 203.382812 34.863281 212.382812 34.863281 217.917969 40.394531 L 235.753906 58.238281 C 241.285156 63.765625 241.285156 72.765625 235.753906 78.296875 L 44.460938 269.589844 C 41.78125 272.269531 38.21875 273.746094 34.429688 273.746094 " fill-opacity="1" fill-rule="nonzero"/></g></svg>